REM DIRINDEX 1\2,1\3,1\4,1\5
REM DIRNAME cjc005,folder01,folder02,folder03,folder04
TITLE ""
FILE "P1Q_t_0312-0321.mp3" MP3
  TRACK 01 AUDIO
    TITLE "3:cjc005_1837"
    INDEX 01 00:00:00
  TRACK 02 AUDIO
    TITLE "0:"
    INDEX 01 00:01:13
  TRACK 03 AUDIO
    TITLE "4:cjc005_1838"
    INDEX 01 00:01:38
  TRACK 04 AUDIO
    TITLE "0:"
    INDEX 01 00:02:63
  TRACK 05 AUDIO
    TITLE "5:cjc005_1839"
    INDEX 01 00:03:15
  TRACK 06 AUDIO
    TITLE "0:"
    INDEX 01 00:07:64
  TRACK 07 AUDIO
    TITLE "3:cjc005_1840"
    INDEX 01 00:08:34
  TRACK 08 AUDIO
    TITLE "0:"
    INDEX 01 00:09:51
  TRACK 09 AUDIO
    TITLE "4:cjc005_1841"
    INDEX 01 00:10:04
  TRACK 10 AUDIO
    TITLE "0:"
    INDEX 01 00:11:46
  TRACK 11 AUDIO
    TITLE "5:cjc005_1842"
    INDEX 01 00:11:74
  TRACK 12 AUDIO
    TITLE "0:"
    INDEX 01 00:15:36
  TRACK 13 AUDIO
    TITLE "3:cjc005_1843"
    INDEX 01 00:16:14
  TRACK 14 AUDIO
    TITLE "0:"
    INDEX 01 00:17:18
  TRACK 15 AUDIO
    TITLE "4:cjc005_1844"
    INDEX 01 00:17:47
  TRACK 16 AUDIO
    TITLE "0:"
    INDEX 01 00:18:48
  TRACK 17 AUDIO
    TITLE "5:cjc005_1845"
    INDEX 01 00:19:03
  TRACK 18 AUDIO
    TITLE "0:"
    INDEX 01 00:23:04
  TRACK 19 AUDIO
    TITLE "3:cjc005_1846"
    INDEX 01 00:23:57
  TRACK 20 AUDIO
    TITLE "0:"
    INDEX 01 00:25:01
  TRACK 21 AUDIO
    TITLE "4:cjc005_1847"
    INDEX 01 00:25:21
  TRACK 22 AUDIO
    TITLE "0:"
    INDEX 01 00:26:18
  TRACK 23 AUDIO
    TITLE "5:cjc005_1848"
    INDEX 01 00:26:36
  TRACK 24 AUDIO
    TITLE "0:"
    INDEX 01 00:31:06
  TRACK 25 AUDIO
    TITLE "3:cjc005_1849"
    INDEX 01 00:31:53
  TRACK 26 AUDIO
    TITLE "0:"
    INDEX 01 00:33:01
  TRACK 27 AUDIO
    TITLE "4:cjc005_1850"
    INDEX 01 00:33:22
  TRACK 28 AUDIO
    TITLE "0:"
    INDEX 01 00:34:57
  TRACK 29 AUDIO
    TITLE "5:cjc005_1851"
    INDEX 01 00:35:06
  TRACK 30 AUDIO
    TITLE "0:"
    INDEX 01 00:39:27
  TRACK 31 AUDIO
    TITLE "3:cjc005_1852"
    INDEX 01 00:39:74
  TRACK 32 AUDIO
    TITLE "0:"
    INDEX 01 00:41:12
  TRACK 33 AUDIO
    TITLE "4:cjc005_1853"
    INDEX 01 00:41:42
  TRACK 34 AUDIO
    TITLE "0:"
    INDEX 01 00:42:45
  TRACK 35 AUDIO
    TITLE "5:cjc005_1854"
    INDEX 01 00:42:66
  TRACK 36 AUDIO
    TITLE "0:"
    INDEX 01 00:46:33
  TRACK 37 AUDIO
    TITLE "3:cjc005_1855"
    INDEX 01 00:47:11
  TRACK 38 AUDIO
    TITLE "0:"
    INDEX 01 00:48:22
  TRACK 39 AUDIO
    TITLE "4:cjc005_1856"
    INDEX 01 00:48:46
  TRACK 40 AUDIO
    TITLE "0:"
    INDEX 01 00:49:37
  TRACK 41 AUDIO
    TITLE "5:cjc005_1857"
    INDEX 01 00:49:61
  TRACK 42 AUDIO
    TITLE "0:"
    INDEX 01 00:53:15
  TRACK 43 AUDIO
    TITLE "3:cjc005_1858"
    INDEX 01 00:53:64
  TRACK 44 AUDIO
    TITLE "0:"
    INDEX 01 00:55:01
  TRACK 45 AUDIO
    TITLE "4:cjc005_1859"
    INDEX 01 00:55:20
  TRACK 46 AUDIO
    TITLE "0:"
    INDEX 01 00:56:12
  TRACK 47 AUDIO
    TITLE "5:cjc005_1860"
    INDEX 01 00:56:31
  TRACK 48 AUDIO
    TITLE "0:"
    INDEX 01 01:00:33
  TRACK 49 AUDIO
    TITLE "3:cjc005_1861"
    INDEX 01 01:01:05
  TRACK 50 AUDIO
    TITLE "0:"
    INDEX 01 01:02:18
  TRACK 51 AUDIO
    TITLE "4:cjc005_1862"
    INDEX 01 01:02:46
  TRACK 52 AUDIO
    TITLE "0:"
    INDEX 01 01:04:27
  TRACK 53 AUDIO
    TITLE "5:cjc005_1863"
    INDEX 01 01:04:54
  TRACK 54 AUDIO
    TITLE "0:"
    INDEX 01 01:09:42
  TRACK 55 AUDIO
    TITLE "3:cjc005_1864"
    INDEX 01 01:10:18
  TRACK 56 AUDIO
    TITLE "0:"
    INDEX 01 01:11:19
  TRACK 57 AUDIO
    TITLE "4:cjc005_1865"
    INDEX 01 01:11:45
  TRACK 58 AUDIO
    TITLE "0:"
    INDEX 01 01:12:48
  TRACK 59 AUDIO
    TITLE "5:cjc005_1866"
    INDEX 01 01:12:70
  TRACK 60 AUDIO
    TITLE "0:"
    INDEX 01 01:16:36
